<svg xmlns="http://www.w3.org/2000/svg" viewBox="0 0 372 278" width="372" height="278">
<style>
svg{--surface:#ffffff;--ink:#1b2430;--ink-dim:#5b6675;--ink-faint:#8892a0;--border:#d7dde4;
--border-strong:#b9c2cc;--accent:#2f6f6a;--accent-soft:#e2efed;--head-right:#2f5fa8;
--head-left:#8a3fa0;--root:#b3261e;}
.bg{fill:var(--surface);}
.form{font:600 13px "IBM Plex Sans","Segoe UI",Arial,sans-serif;fill:var(--ink);}
.lemma{font:italic 11px "IBM Plex Sans","Segoe UI",Arial,sans-serif;fill:var(--ink-dim);}
.upos{font:600 10.5px "IBM Plex Mono",Consolas,monospace;fill:var(--accent);}
.feats{font:9.5px "IBM Plex Mono",Consolas,monospace;fill:var(--ink-dim);}
.idlabel{font:9.5px "IBM Plex Mono",Consolas,monospace;fill:var(--ink-faint);}
.deprel{font:10.5px "IBM Plex Mono",Consolas,monospace;}
.deprel.right{fill:var(--head-right);}
.deprel.left{fill:var(--head-left);}
.deprel.out{fill:var(--ink-faint);}
.deprel-bg{fill:var(--surface);opacity:0.86;}
.edge{fill:none;stroke-width:1.3;}
.edge.right{stroke:var(--head-right);}
.edge.left{stroke:var(--head-left);}
.edge.out{stroke:var(--ink-faint);stroke-dasharray:3,3;}
.ah.right{fill:var(--head-right);}
.ah.left{fill:var(--head-left);}
.ah.root{fill:var(--root);}
.ah.out{fill:var(--ink-faint);}
.rootline{fill:none;stroke:var(--root);stroke-width:1.4;}
.rootlabel{font:600 10px "IBM Plex Mono",Consolas,monospace;fill:var(--root);}
.connector{stroke:var(--border-strong);stroke-width:1;stroke-dasharray:2,3;}
.nodebox{fill:var(--surface);stroke:var(--border-strong);stroke-width:1;}
.nodebox.hl{fill:var(--accent-soft);stroke:var(--accent);stroke-width:1.5;}
.gap{font:13px "IBM Plex Sans","Segoe UI",Arial,sans-serif;fill:var(--ink-faint);}
</style>
<rect class="bg" x="0" y="0" width="372" height="278" rx="8"/>
<path d="M 303.0 96.0 L 76.8 150.1" class="edge left"/><path d="M 69.0 152.0 L 75.8 146.2 L 77.7 154.0 Z" class="ah left"/>
<path d="M 303.0 96.0 L 154.5 149.3" class="edge left"/><path d="M 147.0 152.0 L 153.2 145.5 L 155.9 153.1 Z" class="ah left"/>
<path d="M 303.0 96.0 L 231.5 147.3" class="edge left"/><path d="M 225.0 152.0 L 229.2 144.1 L 233.8 150.6 Z" class="ah left"/>
<path d="M 303.0 26.0 L 303.0 36.0" class="edge out"/><path d="M 303.0 44.0 L 299.0 36.0 L 307.0 36.0 Z" class="ah out"/>
<text x="303.0" y="22.0" class="deprel out" text-anchor="middle">advcl</text>
<rect x="113.8" y="128.4" width="32.0" height="12" class="deprel-bg"/>
<text x="129.8" y="137.9" class="deprel left" text-anchor="middle">mark</text>
<rect x="174.8" y="128.4" width="25.5" height="12" class="deprel-bg"/>
<text x="187.6" y="137.9" class="deprel left" text-anchor="middle">cop</text>
<rect x="226.0" y="128.4" width="38.5" height="12" class="deprel-bg"/>
<text x="245.3" y="137.9" class="deprel left" text-anchor="middle">nsubj</text>
<rect x="45.7" y="152.0" width="46.5" height="52.0" rx="5" class="nodebox"/><text x="69.0" y="165.0" class="form" text-anchor="middle">si</text><text x="69.0" y="179.0" class="lemma" text-anchor="middle">si</text><text x="69.0" y="193.0" class="upos" text-anchor="middle">SCONJ</text>
<rect x="127.0" y="152.0" width="40.0" height="52.0" rx="5" class="nodebox"/><text x="147.0" y="165.0" class="form" text-anchor="middle">est</text><text x="147.0" y="179.0" class="lemma" text-anchor="middle">sum</text><text x="147.0" y="193.0" class="upos" text-anchor="middle">AUX</text>
<rect x="201.9" y="152.0" width="46.2" height="52.0" rx="5" class="nodebox"/><text x="225.0" y="165.0" class="form" text-anchor="middle">homo</text><text x="225.0" y="179.0" class="lemma" text-anchor="middle">homo</text><text x="225.0" y="193.0" class="upos" text-anchor="middle">NOUN</text>
<rect x="275.9" y="44.0" width="54.3" height="52.0" rx="5" class="nodebox hl"/><text x="303.0" y="57.0" class="form" text-anchor="middle">bulla</text><text x="303.0" y="71.0" class="lemma" text-anchor="middle">bulla</text><text x="303.0" y="85.0" class="upos" text-anchor="middle">NOUN</text>
<line x1="69.0" y1="204.0" x2="69.0" y2="234.0" class="connector"/>
<text x="69.0" y="248.0" class="form" text-anchor="middle">si</text>
<text x="69.0" y="264.0" class="idlabel" text-anchor="middle">29</text>
<line x1="147.0" y1="204.0" x2="147.0" y2="234.0" class="connector"/>
<text x="147.0" y="248.0" class="form" text-anchor="middle">est</text>
<text x="147.0" y="264.0" class="idlabel" text-anchor="middle">30</text>
<line x1="225.0" y1="204.0" x2="225.0" y2="234.0" class="connector"/>
<text x="225.0" y="248.0" class="form" text-anchor="middle">homo</text>
<text x="225.0" y="264.0" class="idlabel" text-anchor="middle">31</text>
<line x1="303.0" y1="96.0" x2="303.0" y2="234.0" class="connector"/>
<text x="303.0" y="248.0" class="form" text-anchor="middle">bulla</text>
<text x="303.0" y="264.0" class="idlabel" text-anchor="middle">32</text>
</svg>
